<svg width="1141" height="788" viewBox="0 0 1141 788" fill="none" xmlns="http://www.w3.org/2000/svg">
<g id="launch" clip-path="url(#clip0)">
<g id="man">
<path id="Vector" d="M789.9 787.27C939.011 787.27 1059.89 770.378 1059.89 749.54C1059.89 728.702 939.011 711.81 789.9 711.81C640.789 711.81 519.91 728.702 519.91 749.54C519.91 770.378 640.789 787.27 789.9 787.27Z" fill="#30374E"/>
<path id="Vector_2" d="M936.98 728.93C936.98 728.93 983.72 670.77 980.62 612.52C979.165 588.1 985.671 563.868 999.16 543.46C1005.65 533.806 1013.02 524.768 1021.16 516.46" stroke="#535461" stroke-width="2" stroke-miterlimit="10"/>
<path id="Vector_3" d="M1019.39 479.78C1016.05 487.89 1021.05 517.46 1021.05 517.46C1021.05 517.46 1045.42 499.98 1048.76 491.87C1050.36 487.975 1050.35 483.603 1048.73 479.716C1047.11 475.828 1044.01 472.743 1040.12 471.14C1036.23 469.537 1031.85 469.546 1027.97 471.167C1024.08 472.787 1020.99 475.885 1019.39 479.78V479.78Z" fill="#6C63FF"/>
<path id="Vector_4" d="M976.61 514.72C978.22 523.34 998.49 545.44 998.49 545.44C998.49 545.44 1009.49 517.53 1007.84 508.9C1007.07 504.759 1004.68 501.094 1001.21 498.711C997.735 496.328 993.456 495.423 989.315 496.195C985.174 496.967 981.508 499.352 979.126 502.826C976.743 506.3 975.838 510.579 976.61 514.72V514.72Z" fill="#6C63FF"/>
<path id="Vector_5" d="M946.07 591.94C951.81 598.57 980.47 607.42 980.47 607.42C980.47 607.42 975.83 577.79 970.09 571.15C967.304 568.071 963.423 566.206 959.279 565.954C955.134 565.702 951.056 567.084 947.918 569.802C944.78 572.521 942.831 576.36 942.489 580.498C942.147 584.636 943.44 588.744 946.09 591.94H946.07Z" fill="#6C63FF"/>
<path id="Vector_6" d="M936.12 655.57C940.65 663.08 967.4 676.64 967.4 676.64C967.4 676.64 967.84 646.64 963.31 639.14C962.231 637.355 960.811 635.799 959.131 634.563C957.451 633.326 955.545 632.433 953.519 631.933C951.494 631.433 949.39 631.338 947.328 631.651C945.266 631.965 943.285 632.681 941.5 633.76C939.715 634.839 938.159 636.259 936.923 637.939C935.686 639.619 934.793 641.526 934.293 643.551C933.793 645.576 933.698 647.68 934.011 649.742C934.325 651.804 935.041 653.785 936.12 655.57Z" fill="#6C63FF"/>
<path id="Vector_7" d="M1028.68 559.71C1020.54 562.96 991.02 557.66 991.02 557.66C991.02 557.66 1008.74 533.47 1016.89 530.21C1020.8 528.647 1025.17 528.701 1029.05 530.362C1032.92 532.022 1035.97 535.153 1037.54 539.065C1039.1 542.977 1039.04 547.35 1037.38 551.221C1035.72 555.093 1032.59 558.147 1028.68 559.71V559.71Z" fill="#6C63FF"/>
<path id="Vector_8" d="M1016.1 633.98C1007.36 634.65 980.78 620.76 980.78 620.76C980.78 620.76 1004.92 602.97 1013.67 602.3C1017.82 602.069 1021.9 603.473 1025.02 606.212C1028.15 608.951 1030.08 612.806 1030.4 616.95C1030.72 621.095 1029.4 625.199 1026.72 628.383C1024.05 631.566 1020.24 633.576 1016.1 633.98V633.98Z" fill="#6C63FF"/>
<path id="Vector_9" d="M993.97 704.48C985.46 706.62 956.92 697.42 956.92 697.42C956.92 697.42 977.71 675.81 986.22 673.68C988.242 673.171 990.345 673.066 992.408 673.369C994.471 673.673 996.455 674.38 998.244 675.451C1000.03 676.521 1001.6 677.933 1002.84 679.607C1004.08 681.28 1004.99 683.183 1005.49 685.205C1006 687.227 1006.11 689.33 1005.81 691.393C1005.5 693.456 1004.79 695.44 1003.72 697.229C1002.65 699.019 1001.24 700.581 999.568 701.825C997.895 703.069 995.992 703.971 993.97 704.48V704.48Z" fill="#6C63FF"/>
<path id="Vector_10" opacity="0.25" d="M1019.39 479.78C1016.05 487.89 1021.05 517.46 1021.05 517.46C1021.05 517.46 1045.42 499.98 1048.76 491.87C1050.36 487.975 1050.35 483.603 1048.73 479.716C1047.11 475.828 1044.01 472.743 1040.12 471.14C1036.23 469.537 1031.85 469.546 1027.97 471.167C1024.08 472.787 1020.99 475.885 1019.39 479.78V479.78Z" fill="black"/>
<path id="Vector_11" opacity="0.25" d="M976.61 514.72C978.22 523.34 998.49 545.44 998.49 545.44C998.49 545.44 1009.49 517.53 1007.84 508.9C1007.07 504.759 1004.68 501.094 1001.21 498.711C997.735 496.328 993.456 495.423 989.315 496.195C985.174 496.967 981.508 499.352 979.126 502.826C976.743 506.3 975.838 510.579 976.61 514.72V514.72Z" fill="black"/>
<path id="Vector_12" opacity="0.25" d="M946.07 591.94C951.81 598.57 980.47 607.42 980.47 607.42C980.47 607.42 975.83 577.79 970.09 571.15C967.304 568.071 963.423 566.206 959.279 565.954C955.134 565.702 951.056 567.084 947.918 569.802C944.78 572.521 942.831 576.36 942.489 580.498C942.147 584.636 943.44 588.744 946.09 591.94H946.07Z" fill="black"/>
<path id="Vector_13" opacity="0.25" d="M936.12 655.57C940.65 663.08 967.4 676.64 967.4 676.64C967.4 676.64 967.84 646.64 963.31 639.14C962.231 637.355 960.811 635.799 959.131 634.563C957.451 633.326 955.545 632.433 953.519 631.933C951.494 631.433 949.39 631.338 947.328 631.651C945.266 631.965 943.285 632.681 941.5 633.76C939.715 634.839 938.159 636.259 936.923 637.939C935.686 639.619 934.793 641.526 934.293 643.551C933.793 645.576 933.698 647.68 934.011 649.742C934.325 651.804 935.041 653.785 936.12 655.57Z" fill="black"/>
<path id="Vector_14" opacity="0.25" d="M1028.68 559.71C1020.54 562.96 991.02 557.66 991.02 557.66C991.02 557.66 1008.74 533.47 1016.89 530.21C1020.8 528.647 1025.17 528.701 1029.05 530.362C1032.92 532.022 1035.97 535.153 1037.54 539.065C1039.1 542.977 1039.04 547.35 1037.38 551.221C1035.72 555.093 1032.59 558.147 1028.68 559.71V559.71Z" fill="black"/>
<path id="Vector_15" opacity="0.25" d="M1016.1 633.98C1007.36 634.65 980.78 620.76 980.78 620.76C980.78 620.76 1004.92 602.97 1013.67 602.3C1017.82 602.069 1021.9 603.473 1025.02 606.212C1028.15 608.951 1030.08 612.806 1030.4 616.95C1030.72 621.095 1029.4 625.199 1026.72 628.383C1024.05 631.566 1020.24 633.576 1016.1 633.98V633.98Z" fill="black"/>
<path id="Vector_16" opacity="0.25" d="M993.97 704.48C985.46 706.62 956.92 697.42 956.92 697.42C956.92 697.42 977.71 675.81 986.22 673.68C988.242 673.171 990.345 673.066 992.408 673.369C994.471 673.673 996.455 674.38 998.244 675.451C1000.03 676.521 1001.6 677.933 1002.84 679.607C1004.08 681.28 1004.99 683.183 1005.49 685.205C1006 687.227 1006.11 689.33 1005.81 691.393C1005.5 693.456 1004.79 695.44 1003.72 697.229C1002.65 699.019 1001.24 700.581 999.568 701.825C997.895 703.069 995.992 703.971 993.97 704.48V704.48Z" fill="black"/>
<path id="Vector_17" d="M937.4 726.5C937.4 726.5 1003.7 692.26 1024.47 637.76C1033.03 614.84 1048.8 595.319 1069.41 582.13C1079.24 575.94 1089.62 570.664 1100.41 566.37" stroke="#535461" stroke-width="2" stroke-miterlimit="10"/>
<path id="Vector_18" d="M1113.7 532.1C1107.36 538.17 1099.95 567.23 1099.95 567.23C1099.95 567.23 1129.31 561.12 1135.65 555.06C1138.7 552.149 1140.47 548.146 1140.57 543.931C1140.67 539.716 1139.09 535.635 1136.18 532.585C1133.26 529.535 1129.26 527.766 1125.05 527.668C1120.83 527.569 1116.75 529.149 1113.7 532.06V532.1Z" fill="#6C63FF"/>
<path id="Vector_19" d="M1060.44 546.71C1058.44 555.25 1067.99 583.71 1067.99 583.71C1067.99 583.71 1089.28 562.64 1091.34 554.05C1092.3 549.958 1091.59 545.654 1089.38 542.08C1087.17 538.506 1083.64 535.954 1079.55 534.983C1075.46 534.012 1071.15 534.701 1067.57 536.899C1063.99 539.097 1061.43 542.625 1060.44 546.71V546.71Z" fill="#6C63FF"/>
<path id="Vector_20" d="M1001.22 604.93C1003.78 613.32 1026.4 633.02 1026.4 633.02C1026.4 633.02 1034.17 604.02 1031.61 595.67C1031 593.675 1030.01 591.818 1028.68 590.208C1027.36 588.597 1025.73 587.263 1023.89 586.282C1022.04 585.301 1020.03 584.692 1017.95 584.49C1015.88 584.288 1013.78 584.497 1011.79 585.105C1009.79 585.713 1007.93 586.708 1006.32 588.033C1004.71 589.359 1003.38 590.988 1002.4 592.829C1001.42 594.67 1000.81 596.686 1000.6 598.763C1000.4 600.839 1000.61 602.935 1001.22 604.93V604.93Z" fill="#6C63FF"/>
<path id="Vector_21" d="M966.34 659.07C967.44 667.78 986.4 691.01 986.4 691.01C986.4 691.01 998.96 663.78 997.85 655.07C997.32 650.891 995.151 647.095 991.821 644.515C988.492 641.936 984.273 640.785 980.095 641.315C975.917 641.845 972.12 644.014 969.54 647.344C966.961 650.673 965.81 654.891 966.34 659.07V659.07Z" fill="#6C63FF"/>
<path id="Vector_22" d="M1089.81 608.94C1081.04 608.62 1056.21 591.81 1056.21 591.81C1056.21 591.81 1082.21 576.88 1090.98 577.2C1093.06 577.277 1095.11 577.763 1097.01 578.632C1098.9 579.5 1100.61 580.734 1102.03 582.262C1103.45 583.79 1104.55 585.582 1105.28 587.537C1106.01 589.492 1106.34 591.571 1106.27 593.655C1106.19 595.739 1105.7 597.788 1104.83 599.684C1103.96 601.58 1102.73 603.286 1101.2 604.705C1099.68 606.125 1097.88 607.229 1095.93 607.956C1093.97 608.682 1091.89 609.017 1089.81 608.94V608.94Z" fill="#6C63FF"/>
<path id="Vector_23" d="M1048.21 671.74C1039.94 668.81 1021.27 645.34 1021.27 645.34C1021.27 645.34 1050.56 638.87 1058.82 641.8C1060.79 642.497 1062.6 643.574 1064.15 644.97C1065.69 646.366 1066.95 648.053 1067.85 649.936C1068.75 651.819 1069.27 653.86 1069.38 655.942C1069.48 658.025 1069.18 660.109 1068.48 662.075C1067.79 664.041 1066.71 665.85 1065.32 667.4C1063.92 668.95 1062.23 670.209 1060.35 671.107C1058.47 672.004 1056.43 672.522 1054.34 672.631C1052.26 672.739 1050.18 672.437 1048.21 671.74V671.74Z" fill="#6C63FF"/>
<path id="Vector_24" d="M999.4 727.23C990.76 725.74 968.4 705.76 968.4 705.76C968.4 705.76 996.17 694.44 1004.81 695.93C1008.96 696.646 1012.66 698.982 1015.09 702.423C1017.51 705.864 1018.48 710.129 1017.76 714.28C1017.04 718.431 1014.71 722.127 1011.27 724.555C1007.83 726.984 1003.56 727.946 999.41 727.23H999.4Z" fill="#6C63FF"/>
<path id="Vector_25" d="M1031.67 694.36L980.28 619.83C980.28 619.83 979.28 601.38 975.96 597.07C972.64 592.76 975.24 583.17 975.24 583.17C975.24 583.17 978.84 577.9 975.72 577.42C972.6 576.94 975.24 565.19 975.24 565.19L975 546.5C975 546.5 977.88 528.5 975.48 524.22C974.777 523.054 974.426 521.71 974.469 520.35C974.511 518.989 974.946 517.67 975.72 516.55C975.72 516.55 978.6 506.24 975.72 503.61C972.84 500.98 973.56 484.91 974.28 472.21C975 459.51 969.23 452.32 969.23 450.4C969.23 448.48 950.23 429.79 950.23 428.12C950.23 426.45 938.23 419.49 931.02 417.57C923.81 415.65 920.21 414.22 920.45 413.26C920.69 412.3 909.16 408.47 909.16 408.47C909.16 408.47 899.07 407.75 895.22 402.71C891.37 397.67 879.63 396.23 879.29 396.18C879.22 395.85 879.14 395.51 879.07 395.18C879 394.85 878.92 394.46 878.85 394.1C879.76 392.57 880.6 391.01 881.36 389.4C881.59 388.91 881.81 388.4 882.02 387.94C886.23 387.75 890.55 386.85 893.85 384.27C895.545 382.852 896.931 381.1 897.92 379.123C898.909 377.146 899.481 374.987 899.6 372.78C899.804 368.35 898.834 363.945 896.79 360.01C894.69 355.69 891.6 351.22 892.66 346.54C893.13 344.54 894.34 342.74 894.96 340.76C896.13 337.01 895.05 332.89 893.23 329.41C891.41 325.93 888.88 322.87 886.86 319.5C884.28 315.206 882.558 310.451 881.79 305.5C881.38 302.9 881.22 300.16 879.91 297.87C878.824 296.171 877.389 294.722 875.7 293.62C868.186 288.246 859.113 285.494 849.88 285.79C843.34 286.02 836.82 287.79 830.33 286.98C826.42 286.5 822.69 285.11 818.91 283.98C810.85 281.6 801.56 280.62 794.54 285.23C787.52 289.84 784.73 298.91 779.98 306C775.78 312.28 769.62 317.54 766.42 324.18C766.42 324.06 766.48 323.93 766.52 323.8C765.733 325.337 765.133 326.961 764.73 328.64C763.51 333.86 764.53 339.32 765.8 344.53C766.45 347.22 767.35 350.14 769.68 351.63C772.01 353.12 775.31 352.79 778.07 353.28C777.97 353.73 777.85 354.19 777.75 354.65C774.892 368.153 777.224 382.236 784.283 394.097C791.342 405.957 802.609 414.723 815.84 418.65C815.84 419.14 815.84 419.65 815.84 420.11C815.835 421.487 815.751 422.863 815.59 424.23V424.23C815.59 424.23 791.44 419.23 784.95 422.63C778.46 426.03 765.73 428.63 763.81 430.53C761.89 432.43 757.09 431.01 752.81 442.28C748.53 453.55 748.01 465.04 742.48 470.28C736.95 475.52 734.08 479.15 733.84 482.99C733.6 486.83 734.56 487.78 732.39 488.99C730.22 490.2 727.11 495.22 728.07 497.14C728.07 497.14 729.27 501.93 725.43 504.32C721.59 506.71 722.06 511.51 722.06 511.51C722.06 511.51 720.62 516.79 717.26 517.98C713.9 519.17 711.73 527.09 711.73 527.09L700.8 539.64L679.21 515.74C677.593 513.949 675.331 512.873 672.922 512.749C670.512 512.626 668.152 513.464 666.36 515.08L655.76 524.64C651.668 525.632 647.971 527.835 645.15 530.96C642.84 533.332 640.98 536.104 639.66 539.14L633.85 544.36C632.024 546.624 630.908 549.378 630.643 552.275C630.378 555.171 630.975 558.082 632.36 560.64L646.19 575.93L646.28 576.06C641.05 576.72 636.43 578.4 632.9 581.51C612.25 599.72 612 616.51 615.13 624.16C618.26 631.81 644.43 661.31 644.43 661.31C644.43 661.31 659.64 681.08 681.6 691.6L681.43 691.77C681 692.23 680.57 692.77 680.15 693.27L679.79 693.73L679.46 694.19L679.07 694.77C678.96 694.92 678.86 695.08 678.76 695.24C678.66 695.4 678.48 695.69 678.35 695.93L678.08 696.39C677.92 696.69 677.75 697 677.59 697.32L677.43 697.63C677.23 698.05 677.03 698.48 676.84 698.93C676.77 699.09 676.71 699.26 676.64 699.42C676.52 699.73 676.39 700.05 676.27 700.42C676.15 700.79 676.12 700.83 676.05 701.04C675.98 701.25 675.84 701.66 675.74 701.98C675.64 702.3 675.6 702.43 675.54 702.65C675.48 702.87 675.34 703.35 675.25 703.71C675.16 704.07 675.14 704.13 675.08 704.36C674.95 704.91 674.82 705.48 674.71 706.08C674.71 706.3 674.63 706.53 674.59 706.76C674.51 707.16 674.44 707.57 674.38 707.99C674.33 708.28 674.3 708.57 674.26 708.86C674.22 709.15 674.16 709.65 674.11 710.05L674.02 710.97C674.02 711.41 673.94 711.87 673.91 712.33C673.91 712.61 673.91 712.89 673.86 713.17C673.86 713.93 673.78 714.69 673.77 715.49C673.29 743.49 674.93 747.6 674.93 747.6C674.93 747.6 678.32 756.53 687.68 757.17C689.054 757.271 690.435 757.197 691.79 756.95C704.28 754.79 733.58 749.76 743.91 751.68C750.12 752.83 761.62 751.13 769.81 749.58L771.96 749.17L773.46 753.93L778.21 752.63L782.21 754.96L784.76 756.42C789.5 772.5 808.76 767.02 808.76 767.02L813.28 769.64L859.64 770.84C859.64 770.84 869.64 776.84 876.05 778.72C876.812 778.951 877.591 779.121 878.38 779.23C882.678 779.575 886.993 779.655 891.3 779.47C894.85 779.38 897.6 779.23 897.6 779.23C897.6 779.23 897.13 766.64 896.45 752.55C914.17 751.81 929.88 750.7 939.39 749.03C964.15 744.68 974.48 722.17 978.28 710.14C979.422 715.057 980.234 720.045 980.71 725.07C981.719 729.46 983.005 733.782 984.56 738.01C985.912 741.412 987.686 744.63 989.84 747.59C1008.1 741.36 997.05 732.02 993.2 727.94C989.35 723.86 995.85 720.51 995.85 720.51C995.85 720.51 1000.85 717.16 1000.41 714.04C999.97 710.92 999.69 707.57 1016.02 707.81C1032.35 708.05 1031.67 694.36 1031.67 694.36ZM778.01 541.36C778.22 542.73 780.5 557.5 782.56 561.36C782.99 562.18 783.16 565.09 783.1 569.25C773.42 568.48 763.34 568.07 763.34 568.07C763.63 568.42 763.811 568.848 763.86 569.3L762.34 568.96L760.13 568.42L777.96 541.3L778.01 541.36ZM742.69 597.56L759.44 600.22L760.85 600.44C760.37 603.052 760.079 605.696 759.98 608.35C759.98 608.6 760.36 608.9 760.9 609.25C760.666 610.57 760.555 611.909 760.57 613.25C760.84 614.58 768.67 617.44 777.65 619.82C777.53 620.3 777.41 620.76 777.29 621.19C769.36 617.02 756.86 615.07 755.42 611.97C753.98 608.87 711.42 593.97 711.42 593.97C711.42 593.97 709.87 593.15 707.19 591.85L718.39 593.97L721.47 593.66C728.453 595.407 735.541 596.703 742.69 597.54V597.56Z" fill="url(#paint0_linear)"/>
<path id="Vector_26" d="M976.99 704.79C976.99 704.79 970.33 745.02 936.52 750.97C902.71 756.92 789.86 755.73 789.86 755.73C789.86 755.73 725.34 746.45 702.01 691.93C678.68 637.41 663.68 615.74 683.68 614.79C703.68 613.84 811.53 651.22 817.68 651.69C823.83 652.16 982.94 568.84 976.99 704.79Z" fill="#434175"/>
<path id="Vector_27" opacity="0.05" d="M976.99 704.79C976.99 704.79 970.33 745.02 936.52 750.97C902.71 756.92 789.86 755.73 789.86 755.73C789.86 755.73 725.34 746.45 702.01 691.93C678.68 637.41 663.68 615.74 683.68 614.79C703.68 613.84 811.53 651.22 817.68 651.69C823.83 652.16 982.94 568.84 976.99 704.79Z" fill="black"/>
<path id="Vector_28" d="M674.35 749.54C674.35 749.54 677.72 758.42 686.99 759.05C688.351 759.146 689.718 759.072 691.06 758.83C703.44 756.69 732.49 751.69 742.72 753.59C748.88 754.74 760.27 753.04 768.38 751.51C773.78 750.51 777.72 749.51 777.72 749.51C777.72 749.51 768.2 717.85 767 716.9C765.8 715.95 724.15 690.95 724.15 690.95L691.15 688.58H691.05C691.05 688.58 684.94 688.99 679.87 695.15C676.38 699.36 673.39 706.28 673.19 717.62C672.73 745.49 674.35 749.54 674.35 749.54Z" fill="#565387"/>
<path id="Vector_29" opacity="0.05" d="M674.35 749.54C674.35 749.54 677.72 758.42 686.99 759.05C683.737 754.87 680.732 750.502 677.99 745.97L678.16 722.88C676.69 705.59 684.78 694.52 691.16 688.61H691.06C691.06 688.61 673.68 689.79 673.2 717.61C672.72 745.43 674.35 749.54 674.35 749.54Z" fill="black"/>
<path id="Vector_30" opacity="0.1" d="M817.48 699.07L848.19 675.07L896.52 627.45C896.52 627.45 891.3 627.2 883.43 626.86C881.43 628.11 875.98 632.04 875.78 636.86C875.54 642.68 862.71 637.26 856.05 640.59C849.39 643.92 816.77 685.67 811.05 685.4C805.33 685.13 800.82 682.5 798.43 686.55C798.43 686.64 798.32 686.72 798.26 686.81L817.48 699.07Z" fill="black"/>
<path id="Vector_31" opacity="0.1" d="M679.88 695.17C680.97 695.7 682.07 696.17 683.2 696.69C706.54 706.69 735.34 727.69 737.49 731.45C738.79 733.77 755.49 743.91 768.38 751.51C773.78 750.51 777.72 749.51 777.72 749.51C777.72 749.51 768.2 717.85 767 716.9C765.8 715.95 724.15 690.95 724.15 690.95L691.15 688.58H691.05C691.05 688.58 684.95 689.01 679.88 695.17Z" fill="black"/>
<path id="Vector_32" d="M615.12 626.93C618.21 634.55 644.12 663.84 644.12 663.84C644.12 663.84 660.54 685.26 683.88 695.26C707.22 705.26 736.02 726.26 738.16 730.02C739.54 732.47 758.16 743.67 771.24 751.37L774.17 753.08L780.67 756.85L784.11 758.85C784.11 758.85 792.11 752.45 800.02 746.01C807.93 739.57 815.65 733.26 815.78 732.9C816.01 732.19 819.1 724.09 818.39 723.62C818.02 723.37 816.39 720.07 813.39 716.25C810.188 712.01 806.033 708.584 801.26 706.25C790.26 701.25 785.55 689.87 785.55 689.87C785.55 689.87 784.55 689.11 782.92 688.11C780.1 686.33 775.57 683.77 772.22 683.34C766.97 682.68 757.22 671.97 757.22 671.97C757.22 671.97 750.55 667.68 747.93 662.21C745.43 656.99 708.51 631.63 705.09 629.29L794.6 686.77L816.02 700.54L846.73 676.54L895.07 628.92C895.07 628.92 888.57 628.6 879.07 628.2C855.58 627.2 813.86 625.59 808.59 626.78C804.3 627.78 799.874 628.067 795.49 627.63C795.49 627.63 783.61 628.17 775.75 624.02C767.89 619.87 755.5 617.93 754.07 614.86C752.64 611.79 710.5 597.01 710.5 597.01C710.5 597.01 653.13 566.54 632.65 584.64C612.17 602.74 612.02 619.32 615.12 626.93Z" fill="#434175"/>
<path id="Vector_33" d="M800.1 452.19L807.48 476.71L817 531.94L852 534.32L862.13 517.52L872.28 500.75C872.28 500.75 878.58 478.43 883.11 456.84C887.11 437.74 889.73 419.2 885.37 417.19C881.51 415.4 878.97 408.97 877.37 402.05C877.16 401.2 876.97 400.33 876.79 399.46C875.624 393.601 874.849 387.672 874.47 381.71C874.47 381.71 801.14 377.91 811.38 408.14C813.207 413.304 814.141 418.742 814.14 424.22C814.13 425.587 814.046 426.952 813.89 428.31C813.369 433.028 811.874 437.586 809.5 441.697C807.127 445.807 803.926 449.38 800.1 452.19V452.19Z" fill="#EE8E9E"/>
<path id="Vector_34" d="M784.86 448.14L787.48 489.8L793.43 525.27L800.1 541.7L806.05 631.58C806.05 631.58 863.46 638.22 877.42 631.46C878.427 631.031 879.3 630.34 879.95 629.46C896.81 604.03 891.28 530.27 891.28 530.27L897.71 482.64L893.42 457.92L883.07 456.82L875.07 455.97C875.07 455.97 873.27 458.19 870.67 461.62C863.61 470.94 850.67 489.27 851.5 496.92C852.68 507.4 850.07 518.11 846.02 519.78C841.97 521.45 838.64 524.3 837.93 521.45C837.22 518.6 836.5 517.88 837.21 513.83C837.92 509.78 834.11 497.4 834.11 497.4C834.11 497.4 827.69 482.88 828.11 476.69C828.53 470.5 827.4 463.35 825.49 461.69C823.58 460.03 820.97 458.35 823.11 450.69C825.25 443.03 813.72 428.24 813.72 428.24L784.86 448.14Z" fill="#E3E8F4"/>
<path id="Vector_35" opacity="0.1" d="M860.69 552.19L863.07 623.38L876.82 631C877.826 630.57 878.7 629.88 879.35 629C896.22 603.53 890.69 529.78 890.69 529.78L897.12 482.16L892.83 457.45L882.47 456.35C886.47 437.25 889.09 418.71 884.74 416.7C880.87 414.91 878.33 408.48 876.68 401.56L869.28 451.96C869.28 451.96 869.9 456.5 870.12 461.18C870.29 464.66 870.23 468.18 869.52 470.05C867.85 474.34 869.04 481.96 869.04 481.96C864.75 489.52 862.61 503.53 861.56 517.06C860.15 535.05 860.69 552.19 860.69 552.19Z" fill="black"/>
<path id="Vector_36" d="M876.91 400.46C876.91 400.46 888.91 401.95 892.71 406.95C896.51 411.95 906.52 412.64 906.52 412.64C906.52 412.64 917.95 416.45 917.71 417.4C917.47 418.35 921.04 419.79 928.19 421.69C935.34 423.59 947.19 430.5 947.19 432.17C947.19 433.84 966 452.4 966 454.31C966 456.22 971.72 463.31 971 475.97C970.28 488.63 969.57 504.54 972.43 507.16C975.29 509.78 972.43 520.02 972.43 520.02C971.672 521.14 971.254 522.455 971.227 523.808C971.2 525.16 971.566 526.491 972.28 527.64C974.66 531.93 971.81 549.79 971.81 549.79L972.04 568.36C972.04 568.36 969.42 580.02 972.52 580.5C975.62 580.98 972.04 586.21 972.04 586.21C972.04 586.21 969.42 595.74 972.76 600.02C976.1 604.3 977.04 622.64 977.04 622.64L1028.04 696.64C1028.04 696.64 1028.76 710.21 1012.57 709.97C996.38 709.73 996.57 713.07 997.09 716.16C997.61 719.25 992.57 722.59 992.57 722.59C992.57 722.59 986.14 725.92 989.95 729.97C993.76 734.02 1004.71 743.3 986.62 749.49C984.479 746.55 982.719 743.351 981.38 739.97C979.845 735.77 978.572 731.478 977.57 727.12C977.57 727.12 975.9 709.02 972.57 706.64C969.24 704.26 969.71 692.83 969.71 692.83C969.71 692.83 974.47 683.55 967.81 679.74C961.15 675.93 864.38 622.41 864.38 622.41L862 551.22C862 551.22 860.33 498.61 870.33 480.99C870.33 480.99 869.14 473.37 870.81 469.09C872.48 464.81 870.57 450.99 870.57 450.99L876.91 400.46Z" fill="#565387"/>
<path id="Vector_37" opacity="0.1" d="M814.51 429.02C814.51 429.02 790.58 424.09 784.15 427.42C777.72 430.75 765.15 433.42 763.15 435.28C761.15 437.14 756.48 435.76 752.2 446.95C747.92 458.14 747.43 469.56 741.96 474.8C736.49 480.04 733.63 483.61 733.39 487.42C733.15 491.23 734.1 492.18 731.96 493.42C729.82 494.66 726.72 499.61 727.67 501.52C728.62 503.43 777.28 545.27 777.28 545.27C777.28 545.27 779.67 561.27 781.81 565.27C783.95 569.27 779.43 625.03 774.67 628.84C769.91 632.65 806.81 632.3 806.81 632.3C806.81 632.3 808.47 595.75 809.9 593.84C811.33 591.93 808.9 552.84 808.9 552.84C808.9 552.84 808.66 519.51 811.76 510.7C814.86 501.89 814.51 472.64 814.51 472.64C814.51 472.64 817.25 455.07 820.58 450.97C823.91 446.87 814.51 429.02 814.51 429.02Z" fill="black"/>
<path id="Vector_38" d="M813.8 428.31C813.8 428.31 789.86 423.38 783.43 426.71C777 430.04 764.43 432.66 762.48 434.57C760.53 436.48 755.82 435.04 751.48 446.23C747.14 457.42 746.72 468.85 741.24 474.09C735.76 479.33 732.91 482.9 732.67 486.71C732.43 490.52 733.39 491.47 731.25 492.66C729.11 493.85 726.01 498.85 726.96 500.75C727.91 502.65 776.48 544.56 776.48 544.56C776.48 544.56 778.86 560.56 781 564.56C783.14 568.56 778.62 624.31 773.86 628.12C769.1 631.93 806 631.58 806 631.58C806 631.58 807.67 595.03 809.1 593.13C810.53 591.23 808.1 552.13 808.1 552.13C808.1 552.13 807.87 518.8 810.96 509.99C814.05 501.18 813.71 471.89 813.71 471.89C813.71 471.89 816.45 454.32 819.77 450.23C823.09 446.14 813.8 428.31 813.8 428.31Z" fill="#565387"/>
<path id="Vector_39" opacity="0.1" d="M811.28 408.14C813.107 413.304 814.041 418.742 814.04 424.22C825.748 427.688 838.28 427.134 849.636 422.646C860.992 418.158 870.517 409.995 876.69 399.46C875.524 393.601 874.749 387.672 874.37 381.71C874.37 381.71 801.05 377.91 811.28 408.14Z" fill="black"/>
<path id="Vector_40" d="M775.1 370.52C775.112 384.486 780.484 397.915 790.106 408.036C799.729 418.158 812.869 424.201 826.817 424.92C840.764 425.638 854.455 420.976 865.066 411.896C875.678 402.816 882.4 390.01 883.847 376.119C885.293 362.229 881.354 348.312 872.842 337.241C864.329 326.169 851.892 318.786 838.096 316.615C824.3 314.443 810.197 317.649 798.695 325.571C787.193 333.493 779.17 345.526 776.28 359.19C775.492 362.915 775.097 366.713 775.1 370.52Z" fill="#EE8E9E"/>
<path id="Vector_41" d="M740.1 496.7L727.01 500.75C727.01 500.75 728.2 505.51 724.39 507.89C720.58 510.27 721.06 515.04 721.06 515.04C721.06 515.04 719.63 520.27 716.3 521.46C712.97 522.65 710.82 530.46 710.82 530.46L699.87 543.08C699.87 543.08 695.82 546.41 696.54 548.08C697.26 549.75 692.25 550.22 692.25 550.22L694.87 592.64L717.49 596.93L731.49 595.5L742.92 591.21L752.92 585.21L757.48 573.64L777.48 543.17L740.1 496.7Z" fill="#565387"/>
<path id="Vector_42" d="M695.58 553.64C695.58 553.64 666.58 511.73 644.87 534.35C623.16 556.97 653.68 593.63 660.82 592.44C667.96 591.25 702.01 589.35 702.01 589.35L695.58 553.64Z" fill="#EE8E9E"/>
<path id="Vector_43" d="M662.392 524.439L635.526 548.671C630.35 553.34 629.939 561.32 634.607 566.495L664.453 599.584C669.121 604.759 677.101 605.17 682.276 600.502L709.142 576.27C714.318 571.601 714.729 563.621 710.061 558.446L680.215 525.357C675.547 520.182 667.567 519.771 662.392 524.439Z" fill="#30374E"/>
<path id="Vector_44" opacity="0.1" d="M662.392 524.439L635.526 548.671C630.35 553.34 629.939 561.32 634.607 566.495L664.453 599.584C669.121 604.759 677.101 605.17 682.276 600.502L709.142 576.27C714.318 571.601 714.729 563.621 710.061 558.446L680.215 525.357C675.547 520.182 667.567 519.771 662.392 524.439Z" fill="black"/>
<path id="Vector_45" d="M663.21 520.988L636.344 545.22C631.168 549.889 630.757 557.869 635.425 563.044L665.271 596.133C669.939 601.308 677.919 601.719 683.094 597.051L709.96 572.819C715.136 568.15 715.547 560.17 710.879 554.995L681.033 521.906C676.365 516.731 668.385 516.32 663.21 520.988Z" fill="#30374E"/>
<path id="Vector_46" d="M672.39 574.31C679.885 574.31 685.96 568.234 685.96 560.74C685.96 553.245 679.885 547.17 672.39 547.17C664.896 547.17 658.82 553.245 658.82 560.74C658.82 568.234 664.896 574.31 672.39 574.31Z" fill="#6C63FF"/>
<path id="Vector_47" opacity="0.1" d="M672.39 574.31C679.885 574.31 685.96 568.234 685.96 560.74C685.96 553.245 679.885 547.17 672.39 547.17C664.896 547.17 658.82 553.245 658.82 560.74C658.82 568.234 664.896 574.31 672.39 574.31Z" fill="black"/>
<path id="Vector_48" d="M673.15 572.59C680.645 572.59 686.72 566.515 686.72 559.02C686.72 551.526 680.645 545.45 673.15 545.45C665.656 545.45 659.58 551.526 659.58 559.02C659.58 566.515 665.656 572.59 673.15 572.59Z" fill="#6C63FF"/>
<path id="Vector_49" d="M676.78 562.41C676.54 593.84 741.54 600.5 741.54 600.5L758.14 603.14L765.58 604.32L768.68 573.64C768.68 573.64 765.27 573.13 761.01 572.14C754.72 570.67 746.57 568.14 744.86 564.59C742.01 558.64 677.01 530.99 676.78 562.41Z" fill="#EE8E9E"/>
<path id="Vector_50" opacity="0.1" d="M776.28 359.19C777.78 359.3 779.194 359.93 780.28 360.97C782.12 362.92 782.22 366.38 784.61 367.58C785.503 367.969 786.492 368.084 787.45 367.91C793.78 367.01 797.45 359.91 803.52 357.91C806.98 356.79 810.79 357.52 814.17 358.82C815.529 359.246 816.749 360.03 817.7 361.09C819.7 363.72 818.31 367.59 819.25 370.78C820.56 375.2 825.84 376.96 830.41 377.54C834.98 378.12 840.13 378.44 843.18 381.89C845.34 384.34 845.89 387.89 845.45 391.1C845.18 392.221 845.18 393.389 845.45 394.51C846.71 398.08 852.89 397.51 854.5 394.73C855.68 392.68 855.32 390.98 858.1 390.41C859.98 390.02 862.19 390.81 863.93 391.41C868.777 393.082 873.885 393.868 879.01 393.73C882.251 386.774 883.987 379.213 884.105 371.54C884.223 363.868 882.72 356.256 879.695 349.204C876.67 342.152 872.19 335.818 866.549 330.616C860.908 325.414 854.233 321.461 846.959 319.015C839.686 316.57 831.978 315.687 824.34 316.424C816.702 317.162 809.306 319.503 802.634 323.295C795.963 327.087 790.168 332.244 785.626 338.43C781.085 344.615 777.9 351.689 776.28 359.19V359.19Z" fill="black"/>
<path id="Vector_51" d="M845.42 393.07C845.15 391.949 845.15 390.781 845.42 389.66C845.85 386.43 845.31 382.89 843.15 380.45C840.15 377 834.95 376.67 830.38 376.1C825.81 375.53 820.53 373.77 819.22 369.35C818.28 366.16 819.7 362.28 817.67 359.65C816.724 358.59 815.507 357.809 814.15 357.39C810.76 356.08 806.95 355.39 803.49 356.47C797.42 358.47 793.75 365.59 787.42 366.47C786.462 366.644 785.473 366.529 784.58 366.14C782.19 364.94 782.09 361.48 780.25 359.54C777.36 356.48 771.87 358.45 768.33 356.18C766.02 354.69 765.13 351.8 764.49 349.13C763.23 343.95 762.22 338.52 763.43 333.34C765.5 324.48 773.43 318.41 778.43 310.85C783.14 303.8 785.78 294.85 792.86 290.21C799.94 285.57 809.03 286.6 817.01 288.97C820.75 290.08 824.45 291.46 828.32 291.97C834.76 292.76 841.22 290.97 847.7 290.79C856.853 290.494 865.847 293.225 873.29 298.56C874.967 299.658 876.392 301.1 877.47 302.79C878.76 305.07 878.93 307.79 879.32 310.37C880.076 315.291 881.774 320.021 884.32 324.3C886.32 327.65 888.83 330.69 890.64 334.15C892.45 337.61 893.51 341.7 892.35 345.42C891.74 347.42 890.53 349.15 890.08 351.16C889.02 355.81 892.08 360.25 894.17 364.54C896.194 368.453 897.153 372.829 896.95 377.23C896.833 379.421 896.267 381.565 895.286 383.528C894.306 385.49 892.932 387.231 891.25 388.64C887.88 391.28 883.45 392.16 879.18 392.3C873.955 392.476 868.743 391.693 863.8 389.99C862.05 389.39 859.8 388.6 857.97 388.99C855.19 389.56 855.55 391.26 854.37 393.31C852.85 396.11 846.68 396.64 845.42 393.07Z" fill="#434175"/>
<path id="Vector_52" opacity="0.1" d="M816.05 700.5L846.76 676.5L895.1 628.88C895.1 628.88 888.6 628.56 879.1 628.16C877.37 629.92 875.83 632.16 875.73 634.66C875.49 640.48 862.66 635.07 856 638.4C849.34 641.73 816.72 683.47 811 683.2C805.28 682.93 800.77 680.3 798.38 684.35C798.329 684.444 798.272 684.534 798.21 684.62C797.26 685.705 795.988 686.458 794.58 686.77L816.05 700.5Z" fill="black"/>
<path id="Vector_53" d="M754.15 698.83L769.58 748.09L772 755.83L779.35 753.83L795.55 749.38L867.71 729.56C867.71 729.56 881.27 729.38 893.71 722.63C907.46 715.15 922.97 711.39 938.55 712.85C948.09 713.74 958.7 709.63 967.55 693.37C967.55 693.37 987.55 634.37 937.07 617.37C886.59 600.37 884.19 626.37 884.19 626.37C884.19 626.37 883.93 626.51 883.51 626.79C881.51 628.04 876.06 631.97 875.86 636.79C875.62 642.61 862.79 637.19 856.13 640.52C849.47 643.85 816.85 685.6 811.13 685.33C805.41 685.06 800.9 682.43 798.51 686.48C798.51 686.57 798.4 686.65 798.34 686.74C796.58 689.17 791.28 689.74 787.77 689.83C785.86 689.89 784.47 689.83 784.47 689.83L784.02 689.97L780.28 691.01L754.15 698.83Z" fill="#434175"/>
<path id="Vector_54" opacity="0.1" d="M758.14 603.14L765.58 604.32L768.68 573.64C768.68 573.64 765.27 573.13 761.01 572.14C762.14 576.39 759.58 592.96 758.14 603.14Z" fill="black"/>
<path id="Vector_55" opacity="0.1" d="M952.82 459.64C952.82 459.64 974.96 453.21 969.48 516.07C964 578.93 923.06 618.64 923.06 618.64C923.06 618.64 875.92 639.35 854.73 636.02C833.54 632.69 818.07 632.02 818.07 632.02C811.401 628.649 804.102 626.704 796.64 626.31C784.73 625.83 759.74 618.45 759.26 616.07C758.78 613.69 765.45 578.69 762.59 576.07C762.59 576.07 795.92 577.44 799.26 579.85C802.6 582.26 807.35 580.53 810.92 579.85C814.49 579.17 825.45 569.64 847.11 577.98C847.11 577.98 854.49 578.69 857.35 576.79C860.21 574.89 864.79 576.31 864.79 576.31C864.79 576.31 869.28 574.64 869.97 573.64C870.66 572.64 876.39 573.64 876.39 573.64C876.73 573.806 877.103 573.894 877.482 573.898C877.861 573.901 878.235 573.82 878.579 573.66C878.922 573.5 879.225 573.265 879.466 572.972C879.706 572.68 879.879 572.338 879.97 571.97C880.718 570.021 881.85 568.242 883.3 566.74C883.3 566.74 889.73 530.55 901.87 516.98C901.87 516.98 905.44 513.88 904.49 510.07C903.54 506.26 924.28 452.01 952.82 459.64Z" fill="black"/>
<path id="Vector_56" d="M952.28 454.8C952.28 454.8 974.42 448.37 968.95 511.23C963.48 574.09 922.47 613.84 922.47 613.84C922.47 613.84 875.33 634.55 854.14 631.22C832.95 627.89 817.48 627.17 817.48 627.17C810.812 623.797 803.513 621.852 796.05 621.46C784.15 620.98 759.15 613.6 758.67 611.22C758.19 608.84 764.86 573.84 762.01 571.22C762.01 571.22 795.34 572.59 798.67 575C802 577.41 806.77 575.68 810.34 575C813.91 574.32 824.86 564.8 846.53 573.13C846.53 573.13 853.91 573.84 856.76 571.94C859.61 570.04 864.21 571.46 864.21 571.46C864.21 571.46 868.67 569.79 869.38 568.84C870.09 567.89 875.81 568.84 875.81 568.84C876.149 569.006 876.521 569.095 876.898 569.099C877.276 569.103 877.649 569.022 877.992 568.863C878.334 568.704 878.636 568.47 878.877 568.179C879.117 567.888 879.289 567.546 879.38 567.18C880.126 565.227 881.259 563.445 882.71 561.94C882.71 561.94 889.14 525.75 901.28 512.18C901.28 512.18 904.85 509.08 903.9 505.28C902.95 501.48 923.66 447.18 952.28 454.8Z" fill="#565387"/>
<path id="Vector_57" opacity="0.1" d="M780.28 691.01L811.72 729.01C811.84 728.9 811.92 728.82 811.92 728.79C812.16 728.07 815.25 719.98 814.54 719.5C813.83 719.02 808.35 707.12 797.4 702.12C790.71 699.12 786.33 693.63 783.94 689.87L780.28 691.01Z" fill="black"/>
<path id="Vector_58" opacity="0.1" d="M780.71 756.85L784.15 758.85C784.15 758.85 792.15 752.45 800.06 746.01C807.97 739.57 815.69 733.26 815.82 732.9C816.05 732.19 819.14 724.09 818.43 723.62C818.06 723.37 816.43 720.07 813.43 716.25C792.11 710.25 805.68 725.08 807.49 725.76C807.49 725.76 781.49 719.76 780.11 748.07C779.921 751.01 780.123 753.963 780.71 756.85V756.85Z" fill="black"/>
<path id="Vector_59" d="M807 768.83L811.53 771.45L857.53 772.64C857.53 772.64 867.39 778.64 873.79 780.46C874.544 780.695 875.317 780.866 876.1 780.97C880.358 781.315 884.632 781.395 888.9 781.21C892.42 781.12 895.15 780.97 895.15 780.97C895.15 780.97 892.97 722.97 891.33 716.97C890.55 714.05 886.7 714.69 882.9 716.15C880.045 717.308 877.292 718.703 874.67 720.32C874.67 720.32 855.15 722.21 852.05 723.89C848.95 725.57 840.15 722.89 834.67 723.89C829.19 724.89 819.44 717.44 819.44 717.44C792.77 708.64 807.77 725.06 809.67 725.78C809.67 725.78 783.73 719.78 782.3 748.09C780.87 776.4 807 768.83 807 768.83Z" fill="#565387"/>
<path id="Vector_60" d="M873.43 746.45C873.93 758.45 883.28 773.34 888.85 781.21C892.37 781.12 895.1 780.97 895.1 780.97C895.1 780.97 892.92 722.97 891.28 716.97C890.5 714.05 886.65 714.69 882.85 716.15C878.28 724.75 873.03 736.78 873.43 746.45Z" fill="#565387"/>
<path id="Vector_61" opacity="0.1" d="M873.43 746.45C873.93 758.45 883.28 773.34 888.85 781.21C892.37 781.12 895.1 780.97 895.1 780.97C895.1 780.97 892.92 722.97 891.28 716.97C890.5 714.05 886.65 714.69 882.85 716.15C878.28 724.75 873.03 736.78 873.43 746.45Z" fill="black"/>
<path id="Vector_62" opacity="0.05" d="M865.57 748.04C868.73 759.62 868.7 772.61 873.74 780.46C874.494 780.695 875.267 780.866 876.05 780.97C880.308 781.315 884.582 781.395 888.85 781.21C892.37 781.12 895.1 780.97 895.1 780.97C895.1 780.97 892.92 722.97 891.28 716.97C890.5 714.05 886.65 714.69 882.85 716.15C879.995 717.308 877.242 718.703 874.62 720.32C874.62 720.32 861.53 733.22 865.57 748.04Z" fill="black"/>
<path id="Vector_63" opacity="0.1" d="M707.05 630.58C707.05 630.58 729.87 637.99 749.21 664.31L707.05 630.58Z" fill="black"/>
<g id="Group" opacity="0.1">
<path id="Vector_64" opacity="0.1" d="M892.51 344.9C892.473 345.069 892.426 345.236 892.37 345.4C892.151 346.084 891.887 346.752 891.58 347.4C891.815 346.541 892.126 345.704 892.51 344.9V344.9Z" fill="black"/>
<path id="Vector_65" opacity="0.1" d="M763.39 333.35C763.786 331.682 764.38 330.067 765.16 328.54C765.04 328.95 764.91 329.36 764.81 329.78C763.6 334.96 764.61 340.39 765.87 345.57C766.52 348.24 767.4 351.13 769.71 352.62C773.26 354.89 778.71 352.91 781.63 355.97C783.47 357.92 783.57 361.38 785.97 362.58C786.863 362.969 787.852 363.084 788.81 362.91C795.13 362.01 798.81 354.91 804.88 352.91C808.34 351.79 812.14 352.52 815.53 353.83C816.887 354.249 818.104 355.03 819.05 356.09C821.05 358.72 819.66 362.6 820.6 365.78C821.91 370.2 827.19 371.96 831.76 372.53C836.33 373.1 841.48 373.43 844.53 376.89C846.69 379.33 847.24 382.89 846.8 386.1C846.535 387.221 846.535 388.389 846.8 389.51C848.06 393.08 854.24 392.51 855.8 389.73C856.98 387.68 856.63 385.98 859.41 385.41C861.28 385.02 863.49 385.81 865.23 386.41C870.172 388.113 875.385 388.896 880.61 388.72C884.88 388.57 889.32 387.72 892.68 385.06C894.215 383.836 895.476 382.303 896.38 380.56C895.597 383.733 893.808 386.568 891.28 388.64C887.92 391.28 883.49 392.16 879.21 392.3C873.988 392.477 868.779 391.694 863.84 389.99C862.09 389.39 859.84 388.6 858.01 388.99C855.23 389.56 855.58 391.26 854.41 393.31C852.79 396.13 846.62 396.66 845.35 393.09C845.085 391.969 845.085 390.801 845.35 389.68C845.79 386.45 845.25 382.91 843.09 380.47C840.03 377.02 834.88 376.69 830.31 376.12C825.74 375.55 820.46 373.79 819.16 369.37C818.21 366.18 819.64 362.3 817.61 359.67C816.659 358.612 815.439 357.831 814.08 357.41C810.69 356.1 806.89 355.41 803.43 356.49C797.35 358.49 793.68 365.61 787.36 366.49C786.402 366.664 785.413 366.549 784.52 366.16C782.12 364.96 782.02 361.5 780.18 359.56C777.29 356.5 771.81 358.47 768.27 356.2C765.95 354.71 765.07 351.82 764.42 349.15C763.18 343.96 762.17 338.53 763.39 333.35Z" fill="black"/>
</g>
<path id="Vector_66" opacity="0.1" d="M896.2 523.9C891.84 529.79 886.86 535.24 883 541.47C879.14 547.7 876.41 554.97 877.22 562.25C881.22 558.15 883.04 552.49 885.56 547.35C889.82 538.65 896.2 531.27 901.56 523.27C902.56 521.74 909.17 512.92 905.84 512.5C903.1 512.15 897.69 521.89 896.2 523.9Z" fill="black"/>
</g>
<g id="rocket">
<path id="Vector_67" d="M129.785 471.588C129.785 471.588 133.641 463.243 151.984 473.331C151.984 473.331 150.011 478.906 142.217 478.988C134.422 479.07 132.088 475.691 129.785 471.588Z" fill="#6C63FF"/>
<path id="Vector_68" d="M175.276 415.812C175.276 415.812 181.854 414.308 186.145 418.731C186.145 418.731 183.375 421.197 176.879 418.46L175.276 415.812Z" fill="#6C63FF"/>
<path id="Vector_69" d="M174.561 415.755C174.561 415.755 170.68 421.263 173.147 426.912C173.147 426.912 176.501 425.267 176.435 418.238L174.561 415.755Z" fill="#6C63FF"/>
<path id="Vector_70" d="M170.187 407.443C170.187 407.443 172.514 402.403 183.588 408.503C183.588 408.503 182.396 411.866 177.685 411.915C172.974 411.965 171.593 409.926 170.187 407.443Z" fill="#6C63FF"/>
<path id="Vector_71" d="M169.48 407.138C169.48 407.138 163.922 406.883 164.234 419.52C164.234 419.52 167.778 420.014 169.99 415.853C172.201 411.693 171.034 409.539 169.48 407.138Z" fill="#6C63FF"/>
<path id="Vector_72" d="M165.591 397.297C165.591 397.297 168.115 388.508 179.757 393.86C179.757 393.86 177.726 401.909 166.939 400.142L165.591 397.297Z" fill="#6C63FF"/>
<path id="Vector_73" d="M161.283 384.701C161.283 384.701 166.536 375.657 177.43 382.991C177.43 382.991 174.347 391.377 162.376 387.735L161.283 384.701Z" fill="#6C63FF"/>
<path id="Vector_74" d="M165.287 397.116C165.287 397.116 157.213 392.824 152.954 404.927C152.954 404.927 160.165 409.038 166.38 400.059L165.287 397.116Z" fill="#6C63FF"/>
<path id="Vector_75" d="M210.375 471.605C208.265 471.98 206.198 472.569 204.208 473.364C159.86 491.074 160.6 607 160.6 607H147.544C147.544 607 143.433 557.25 125.518 486.272C109.379 422.414 175.572 365.183 189.015 354.33C190.527 353.122 191.366 352.48 191.366 352.48C258.036 376.981 210.375 471.605 210.375 471.605Z" fill="#AFC0E0"/>
<path id="Vector_76" opacity="0.2" d="M196.217 354.495C194.679 353.788 193.093 353.113 191.407 352.497C191.407 352.497 190.585 353.138 189.056 354.347C175.613 365.199 109.42 422.431 125.559 486.289C143.475 557.267 147.544 607 147.544 607H154.886C154.886 607 150.817 557.25 132.86 486.272C116.787 422.71 182.339 365.693 196.217 354.495Z" fill="white"/>
<path id="Vector_77" d="M430.338 486.289C412.382 557.267 408.337 607 408.337 607H395.256C395.256 607 396.079 485.845 348.615 472.32C347.587 472.012 346.54 471.767 345.482 471.588C345.482 471.588 297.796 376.965 364.491 352.48C364.491 352.48 365.165 352.982 366.382 353.96C378.739 363.851 446.659 421.691 430.338 486.289Z" fill="#AFC0E0"/>
<path id="Vector_78" opacity="0.1" d="M210.375 471.605C208.265 471.98 206.198 472.569 204.208 473.364C196.19 434.125 191.112 394.342 189.015 354.347C190.527 353.138 191.366 352.497 191.366 352.497C258.036 376.981 210.375 471.605 210.375 471.605Z" fill="black"/>
<path id="Vector_79" opacity="0.1" d="M366.406 353.977C363.688 393.856 357.746 433.449 348.639 472.369C347.611 472.061 346.565 471.817 345.507 471.638C345.507 471.638 297.821 377.014 364.515 352.53C364.491 352.497 365.165 352.998 366.406 353.977Z" fill="black"/>
<path id="Vector_80" d="M341.996 489.545C337.392 507.709 331.996 526.345 325.808 545.452C325.808 545.452 296.44 576.045 225.503 545.452C225.503 545.452 218.416 525.473 210.621 491.51C193.463 416.832 172.884 274.522 216.73 128.348C229.787 84.4055 248.345 42.289 271.964 3C271.964 3 309.422 46.0078 336.915 128.324C364.408 210.639 381.904 332.28 341.996 489.545Z" fill="#E3E8F4"/>
<path id="Vector_81" d="M277.924 303.282C310.449 303.282 336.816 276.915 336.816 244.39C336.816 211.864 310.449 185.497 277.924 185.497C245.399 185.497 219.032 211.864 219.032 244.39C219.032 276.915 245.399 303.282 277.924 303.282Z" fill="#AFC0E0"/>
<path id="Vector_82" d="M319.691 244.422C319.69 252.332 317.444 260.078 313.214 266.761C308.984 273.444 302.943 278.788 295.794 282.172C288.646 285.556 280.683 286.84 272.833 285.876C264.983 284.912 257.568 281.739 251.45 276.726C248.464 274.267 245.831 271.409 243.623 268.232C242.632 266.814 241.731 265.333 240.927 263.801C237.794 257.822 236.161 251.172 236.166 244.422C236.166 244.085 236.166 243.756 236.166 243.428C236.38 234.496 239.449 225.868 244.924 218.808C250.398 211.747 257.99 206.626 266.586 204.194C269.869 203.289 273.247 202.776 276.65 202.664H277.9C283.386 202.661 288.819 203.739 293.889 205.836C298.958 207.933 303.565 211.008 307.446 214.886C311.327 218.764 314.406 223.368 316.507 228.436C318.608 233.504 319.689 238.936 319.691 244.422Z" fill="#6C63FF"/>
<path id="Vector_83" d="M336.907 128.324C270.089 160.314 216.689 128.324 216.689 128.324C229.761 84.3873 248.333 42.2792 271.964 3C271.964 3 309.422 46.0078 336.907 128.324Z" fill="#AFC0E0"/>
<path id="Vector_84" opacity="0.2" d="M266.611 204.136L266.521 204.202L236.183 243.37C236.183 243.699 236.183 244.028 236.183 244.365C236.177 251.115 237.811 257.765 240.943 263.743L276.691 202.607L266.611 204.136Z" fill="white"/>
<path id="Vector_85" opacity="0.2" d="M276.296 239.489L251.45 276.693C248.464 274.234 245.831 271.376 243.623 268.2L273.221 236.431L276.296 239.489Z" fill="white"/>
<path id="Vector_86" opacity="0.2" d="M241.371 545.436C241.371 545.436 234.283 525.449 226.489 491.493C209.33 416.807 188.752 274.497 232.598 128.324C244.384 88.7723 260.616 50.6845 280.983 14.79C275.417 6.98755 271.939 3.00824 271.939 3.00824C248.317 42.2858 229.753 84.3912 216.689 128.324C172.843 274.497 193.421 416.807 210.58 491.493C218.374 525.449 225.461 545.436 225.461 545.436C253.489 557.514 275.022 560.046 290.824 558.697C277.324 557.67 260.93 553.863 241.371 545.436Z" fill="white"/>
</g>
<g id="fire">
<path id="Vector_87" d="M222.164 726.116C227.488 731.941 235.765 739.803 239.286 722.05C240.484 716.014 243.282 711.361 245.679 707.615C248.264 720.722 256.039 734.289 263.365 743.437C266.107 746.859 275.834 760.464 277.703 783.225C277.982 786.622 282.008 788.217 284.526 785.926C308.594 764.031 321.804 733.919 322.294 700.018C322.294 700.018 332.316 708.484 337.76 724.233C339.226 728.474 344.9 729.283 347.362 725.533C347.834 724.813 348.272 724.092 348.667 723.391C367.236 690.488 376.169 650.53 367.911 613.356C354.104 551.1 262.772 533.695 214.42 572.824C167.114 611.107 182.151 682.36 222.164 726.116Z" fill="#ED694A"/>
<g id="Group_2">
<path id="Vector_88" d="M355.072 609.288C363.229 646.756 354.595 686.99 336.474 720.316C336.932 721.422 337.373 722.565 337.785 723.754C339.25 727.983 344.92 728.79 347.379 725.051C347.852 724.333 348.289 723.614 348.684 722.915C367.241 690.103 376.168 650.257 367.915 613.185C361.622 584.868 339.207 565.862 312.104 557.26C333.248 567.502 349.806 585.06 355.072 609.288Z" fill="#D8553A"/>
<path id="Vector_89" d="M309.421 700.23C308.419 730.912 297.322 758.423 277.46 779.558C277.597 780.722 277.698 781.763 277.763 782.553C278.048 785.969 281.924 787.682 284.43 785.417C307.661 764.414 321.82 734.689 322.328 699.609L317.98 696.232C315.839 694.569 312.938 694.641 310.893 696.165C309.673 697.199 309.497 698.76 309.421 700.23Z" fill="#D8553A"/>
</g>
<path id="Vector_90" d="M236.574 680.179C240.523 684.467 246.665 690.255 249.277 677.186C250.166 672.743 252.242 669.317 254.02 666.558C255.937 676.208 261.706 686.196 267.142 692.93C269.176 695.449 276.392 705.464 277.779 722.221C277.986 724.722 280.973 725.896 282.842 724.209C300.698 708.092 310.5 685.923 310.863 660.967C310.863 660.967 318.299 667.199 322.338 678.793C323.425 681.915 327.635 682.51 329.461 679.75C329.812 679.22 330.137 678.689 330.43 678.173C344.207 653.95 350.835 624.535 344.708 597.168C334.464 551.338 266.702 538.524 230.828 567.33C195.729 595.512 206.886 647.966 236.574 680.179Z" fill="#F4A32C"/>
<path id="Vector_91" d="M331.903 594.056C337.338 620.809 331.709 649.515 319.775 673.419C320.684 675.186 321.546 677.14 322.292 679.277C323.382 682.399 327.6 682.995 329.429 680.234C329.78 679.705 330.106 679.173 330.4 678.657C344.202 654.434 350.841 625.018 344.704 597.651C339.931 576.335 322.691 562.166 302 556C316.701 563.317 328.276 576.173 331.903 594.056Z" fill="#E89528"/>
<path id="Vector_92" d="M250.569 638.687C253.231 641.587 257.372 645.502 259.132 636.663C259.731 633.658 261.131 631.341 262.329 629.476C263.622 636.002 267.51 642.757 271.174 647.311C272.544 649.015 277.409 655.788 278.344 667.121C278.484 668.812 280.497 669.606 281.756 668.465C293.792 657.564 300.398 642.572 300.643 625.694C300.643 625.694 305.655 629.909 308.377 637.75C309.11 639.861 311.948 640.264 313.178 638.397C313.415 638.039 313.634 637.68 313.832 637.331C323.118 620.949 327.585 601.056 323.455 582.547C316.551 551.552 270.877 542.886 246.697 562.368C238.417 569.039 233.283 578.439 232.242 588.838C230.671 604.587 236.746 623.637 250.569 638.687Z" fill="#F4D44E"/>
<path id="Vector_93" d="M262.383 600.146C263.872 601.758 266.187 603.935 267.171 599.021C267.506 597.35 268.288 596.062 268.959 595.025C269.682 598.653 271.856 602.409 273.904 604.941C274.67 605.888 277.391 609.655 277.914 615.955C277.992 616.896 279.118 617.337 279.821 616.703C286.551 610.642 290.245 602.306 290.382 592.922C290.382 592.922 293.184 595.266 294.707 599.625C295.117 600.799 296.703 601.023 297.391 599.985C297.523 599.786 297.645 599.586 297.755 599.392C302.947 590.283 305.445 579.223 303.136 568.932C297.878 545.462 254.779 546.173 252.135 572.43C251.258 581.186 254.654 591.779 262.383 600.146Z" fill="#EAE9E8"/>
<path id="Vector_94" d="M293.088 564.049C295.406 573.294 292.898 583.231 287.686 591.413C287.576 591.587 287.452 591.767 287.32 591.946C286.629 592.878 285.037 592.677 284.626 591.623C283.098 587.706 280.284 585.601 280.284 585.601C280.171 592.528 277.643 598.816 273 603.859C274.038 605.286 277.215 608.728 277.814 615.951C277.892 616.895 279.022 617.338 279.729 616.702C286.484 610.615 290.193 602.243 290.33 592.819C290.33 592.819 293.143 595.173 294.671 599.55C295.082 600.73 296.675 600.955 297.365 599.912C297.498 599.711 297.621 599.511 297.731 599.316C302.943 590.169 305.451 579.061 303.133 568.726C300.988 559.146 292.176 553.389 282.434 552C287.689 554.562 291.728 558.618 293.088 564.049Z" fill="#F7E7A1"/>
<path id="Vector_95" d="M301.161 665.185C299.39 686.17 291.406 704.829 278 719.053C278.136 720.084 278.25 721.143 278.339 722.231C278.543 724.723 281.492 725.893 283.337 724.212C297.305 711.485 306.271 694.968 309.573 676.287L309.578 676.288C309.823 674.902 310.127 672.884 310.319 671.298C310.318 671.297 310.318 671.296 310.317 671.294C310.718 667.985 310.951 664.615 311 661.191C310.627 661.118 302.181 656.761 301.161 665.185Z" fill="#E89528"/>
<g id="Group_3">
<path id="Vector_96" d="M310.561 578.19C314.229 595.506 311.105 613.972 303.848 629.972C305.254 631.943 306.793 634.591 307.931 637.878C308.664 639.992 311.499 640.396 312.729 638.526C312.965 638.168 313.184 637.808 313.382 637.459C322.66 621.052 327.123 601.13 322.997 582.593C319.766 568.056 308.039 558.424 294.001 554.294C302.172 559.719 308.353 567.748 310.561 578.19Z" fill="#E8C842"/>
<path id="Vector_97" d="M286.963 633.371C285.748 642.061 282.194 651.635 276.599 659.639C277.208 661.899 277.688 664.452 277.922 667.292C278.061 668.986 280.073 669.782 281.331 668.639C288.824 661.836 294.202 653.44 297.258 643.99L297.266 643.992C297.746 642.508 298.426 640.048 298.838 638.107C298.834 638.108 298.831 638.108 298.827 638.11C299.671 634.148 300.14 630.037 300.202 625.805C293.474 624.965 287.908 626.631 286.963 633.371Z" fill="#E8C842"/>
</g>
</g>
</g>
<defs>
<linearGradient id="paint0_linear" x1="822.67" y1="779.52" x2="822.67" y2="281.97" gradientUnits="userSpaceOnUse">
<stop stop-color="#808080" stop-opacity="0.25"/>
<stop offset="0.54" stop-color="#808080" stop-opacity="0.12"/>
<stop offset="1" stop-color="#808080" stop-opacity="0.1"/>
</linearGradient>
<clipPath id="clip0">
<rect width="1140.56" height="787.27" fill="white"/>
</clipPath>
</defs>
</svg>
